<svg xmlns="http://www.w3.org/2000/svg" width="39.245" height="39.245" viewBox="0 0 39.245 39.245">
  <g id="noun_Cross_3325398_2_" data-name="noun_Cross_3325398 (2)" transform="translate(-6 -6)">
    <g id="Groupe_67" data-name="Groupe 67" transform="translate(6 6)">
      <path id="Tracé_14221" data-name="Tracé 14221" d="M25.623,6A19.623,19.623,0,1,0,45.245,25.623,19.623,19.623,0,0,0,25.623,6Zm0,36.226a16.6,16.6,0,1,1,16.6-16.6,16.6,16.6,0,0,1-16.6,16.6ZM32.09,21.283l-4.332,4.34,4.332,4.34a1.509,1.509,0,1,1-2.128,2.128l-4.34-4.332-4.34,4.332a1.509,1.509,0,0,1-2.128-2.128l4.332-4.34-4.332-4.34a1.509,1.509,0,0,1,2.128-2.128l4.34,4.332,4.34-4.332a1.509,1.509,0,0,1,2.128,2.128Z" transform="translate(-6 -6)" fill="#fff"/>
    </g>
  </g>
</svg>
