<svg xmlns="http://www.w3.org/2000/svg" width="62.69" height="62.802" viewBox="0 0 62.69 62.802">
  <g id="Layer_1" data-name="Layer 1" transform="translate(-119.752)">
    <path id="Tracé_14171" data-name="Tracé 14171" d="M22.82,15.282v2.475H38.767a4,4,0,0,1-.385-2.9H22.82Z" transform="translate(108.921 12.492)" fill="#fff"/>
    <path id="Tracé_14172" data-name="Tracé 14172" d="M44.353,25.717V20.86h-1.5v5.206h1.5Z" transform="translate(125.605 17.49)" fill="#fff"/>
    <path id="Tracé_14173" data-name="Tracé 14173" d="M33.17,19.5Z" transform="translate(117.542 16.357)" fill="#fff"/>
    <path id="Tracé_14174" data-name="Tracé 14174" d="M30.47,19.55Z" transform="translate(115.293 16.399)" fill="#fff"/>
    <path id="Tracé_14175" data-name="Tracé 14175" d="M31.391,33.941l-.293-.807L29.265,28.24H28.33c-2.639,0-5.261,0-7.9.092a32.7,32.7,0,0,0,2.493,2.548H23.4a.4.4,0,0,1,.385.385v.4c.495.422,1.008.807,1.521,1.191V31.264a.4.4,0,0,1,.385-.385h2.273a.385.385,0,0,1,.385.385V34.93c.99.568,2,1.1,3.043,1.576V33.941Z" transform="translate(106.93 23.637)" fill="#fff"/>
    <path id="Tracé_14176" data-name="Tracé 14176" d="M42.36,30.458v2.456c.513-.312,1.026-.623,1.5-.971V30.11h-1.5Z" transform="translate(125.197 25.195)" fill="#fff"/>
    <path id="Tracé_14177" data-name="Tracé 14177" d="M23.53,30.467V31.9c.495.348.99.66,1.5.99V30.1h-1.5Z" transform="translate(109.512 25.187)" fill="#fff"/>
    <path id="Tracé_14178" data-name="Tracé 14178" d="M21.66,18.528V33.192h1.411c-.11-.312.2-.715.513-.458l.678.477h6.269V31.377a.385.385,0,1,1,.77,0v.752h1.98v-6.91a6.067,6.067,0,0,1-.77-.22,8.468,8.468,0,0,1-3.886-4.069h0L28.13,20.4c-.33-.367.22-.916.55-.532a6.745,6.745,0,0,0,7.094,2.456l1.008-.367a1.833,1.833,0,0,1-.275-.367,2.768,2.768,0,0,1-.238-.532.389.389,0,1,1,.752-.2.348.348,0,0,0,0,.128h0l.092.165.11.183h0v.092h0l.22.128h3.813a3.556,3.556,0,0,1-.642-1.32.389.389,0,1,1,.752-.2v.238h0V20.4l.147.275.2.293h0l.128.128a1.1,1.1,0,0,0,.147.147h0a1.5,1.5,0,0,0,.367.22h1.265l.2-.11h0a2.089,2.089,0,0,0,.275-.293.5.5,0,0,0,.128-.147h0l.183-.293.128-.275h0a.9.9,0,0,0,0-.2.389.389,0,1,1,.752.2l-.11.275a3.666,3.666,0,0,1-.825,1.3h3.923l.183-.165v-.092h0l.11-.165.092-.165h0a.623.623,0,1,1,1.118-.55.385.385,0,0,1,.477-.275.4.4,0,0,1,.275.477v.165a2.383,2.383,0,0,1-.55.861h0a6.086,6.086,0,0,0,1.961.44,6.984,6.984,0,0,0,5.5-2.713c.33-.385.862.165.55.532l-.44.477h0s-.2.367-.312.55a7.588,7.588,0,0,1-4.106,3.666v6.965h1.723v-.752a.385.385,0,1,1,.77,0v1.833h6.36l.587-.4c.293-.238.587.11.532.4h2.035V16.86H46.35a4.051,4.051,0,0,1-1.833,1.173H62.205a.385.385,0,0,1,0,.77h-37.8a.385.385,0,0,1,0-.77H42.1a4.161,4.161,0,0,1-1.833-1.173H21.66ZM59.731,29.049V23.807a.385.385,0,0,1,.385-.385h2.273a.4.4,0,0,1,.385.385v6.25h-.11a.183.183,0,0,1-.147,0h-2.4a.385.385,0,0,1-.385-.385Zm-36.128,0V23.807a.4.4,0,0,1,.385-.385h2.273a.4.4,0,0,1,.385.385v5.976a.275.275,0,0,1,0,.165s0,0,0,.11h-.11a.275.275,0,0,1-.165,0H23.988a.4.4,0,0,1-.385-.385Z" transform="translate(107.954 14.158)" fill="#fff"/>
    <path id="Tracé_14179" data-name="Tracé 14179" d="M50.5,28.22H42.671v.128c-.7,1.833-1.393,3.666-2.071,5.627h0v2.291c.862-.4,1.723-.843,2.53-1.32V31.281a.4.4,0,0,1,.385-.385h2.218a.4.4,0,0,1,.385.385v1.668c.513-.385,1.026-.77,1.521-1.191v-.477a.385.385,0,0,1,.385-.385h.642a32.646,32.646,0,0,0,2.6-2.676C50.956,28.22,50.755,28.238,50.5,28.22Z" transform="translate(123.731 23.621)" fill="#fff"/>
    <path id="Tracé_14180" data-name="Tracé 14180" d="M30.45,19.54Z" transform="translate(115.276 16.39)" fill="#fff"/>
    <path id="Tracé_14181" data-name="Tracé 14181" d="M43.536,12.081V11H29.55v1.118Z" transform="translate(114.527 9.277)" fill="#fff"/>
    <path id="Tracé_14182" data-name="Tracé 14182" d="M41.226,12.081V11H37.56v1.118Z" transform="translate(121.199 9.277)" fill="#fff"/>
    <path id="Tracé_14183" data-name="Tracé 14183" d="M35.509,13.642A3.263,3.263,0,1,0,38.2,16.581a3.263,3.263,0,0,0-2.688-2.939Z" transform="translate(116.303 11.437)" fill="#fff"/>
    <path id="Tracé_14184" data-name="Tracé 14184" d="M38.55,6.6Z" transform="translate(122.023 5.612)" fill="#fff"/>
    <path id="Tracé_14185" data-name="Tracé 14185" d="M52.034,6.868H34.309v.165c-1.98,4.8-7.973,6.012-12.739,6.012a3.666,3.666,0,0,0,1.833.568H63.435a3.024,3.024,0,0,0,1.045-.2l.422-.2.385-.2a22,22,0,0,1-6.379-.715A11,11,0,0,1,52.9,8.408a7.625,7.625,0,0,1-.862-1.558Z" transform="translate(107.88 5.82)" fill="#fff"/>
    <path id="Tracé_14186" data-name="Tracé 14186" d="M40,12.1h3.079c-.238-.367-.44-.752-.642-1.118H40Z" transform="translate(123.231 9.26)" fill="#fff"/>
    <path id="Tracé_14187" data-name="Tracé 14187" d="M22.3,16.472H39a3.483,3.483,0,0,1,.55-.9,4.033,4.033,0,0,1,6.764.861h16.35a13.582,13.582,0,0,1-4.124-3.923L58.41,12H26.882A13.307,13.307,0,0,1,22.3,16.472Z" transform="translate(108.488 10.11)" fill="#fff"/>
    <path id="Tracé_14188" data-name="Tracé 14188" d="M30.8,12.081V11H27.13v1.118Z" transform="translate(112.511 9.277)" fill="#fff"/>
    <path id="Tracé_14189" data-name="Tracé 14189" d="M37.533,17.748H51.372V14.87H35.755a5.5,5.5,0,0,1,.147.935,4.234,4.234,0,0,1-.532,1.961Z" transform="translate(119.375 12.5)" fill="#fff"/>
    <path id="Tracé_14190" data-name="Tracé 14190" d="M28.131,12.081V11h-2.42c-.128.257-.275.495-.422.752l-.22.367h3.061Z" transform="translate(110.795 9.277)" fill="#fff"/>
    <path id="Tracé_14191" data-name="Tracé 14191" d="M24.683,25.717V20.86h-1.5v5.206h1.5Z" transform="translate(109.221 17.49)" fill="#fff"/>
    <path id="Tracé_14192" data-name="Tracé 14192" d="M27.021,28.24h-1.3c.422,1.173.861,2.365,1.3,3.556Z" transform="translate(111.336 23.637)" fill="#fff"/>
    <path id="Tracé_14193" data-name="Tracé 14193" d="M48.44,26.26h-3.1a10.7,10.7,0,0,1-3.483,2.823h0c2.456,0,4.949-.11,7.332,0h1.466c.367-.458.715-.935,1.063-1.411a5.279,5.279,0,0,1-3.134-1.521Z" transform="translate(124.781 21.896)" fill="#fff"/>
    <path id="Tracé_14194" data-name="Tracé 14194" d="M30.039,29.3H51.21V28.24H26.85v1.136a.33.33,0,0,1,.183,0Z" transform="translate(112.278 23.637)" fill="#fff"/>
    <path id="Tracé_14195" data-name="Tracé 14195" d="M40.34,27.071h0a1.943,1.943,0,0,0,.7.293,4.161,4.161,0,0,0,1.265,0,8.45,8.45,0,0,0,3.1-1.155H40.12v.678h0Z" transform="translate(123.331 21.946)" fill="#fff"/>
    <path id="Tracé_14196" data-name="Tracé 14196" d="M30.47,27.041h10.7V25.63H30.47Z" transform="translate(115.293 21.463)" fill="#fff"/>
    <path id="Tracé_14197" data-name="Tracé 14197" d="M28.43,27.05H31.4V25.62H28.43Z" transform="translate(113.594 21.455)" fill="#fff"/>
    <path id="Tracé_14198" data-name="Tracé 14198" d="M43.472,29.24H36.14v8.725a30.318,30.318,0,0,0,7.332-2.09Z" transform="translate(120.016 24.47)" fill="#fff"/>
    <path id="Tracé_14199" data-name="Tracé 14199" d="M23.209,48.534a5.5,5.5,0,0,0,1.375-.807c.2-.165.293-.293.532-.348h.257V30.956H23.246a.385.385,0,0,1,0-.77h2.31a.367.367,0,0,1,.385,0H27.5V27.308H24.327a.385.385,0,1,1,0-.77A5.5,5.5,0,0,0,27.26,25.7a13.033,13.033,0,0,0,3.666-3.666H28.891a.385.385,0,0,1,0-.77h2.584c.238-.367.458-.733.678-1.118H27.608a5.187,5.187,0,0,1-3.171-1.448.385.385,0,0,1,.275-.66,27.754,27.754,0,0,0,3.024,0,.367.367,0,0,1-.11-.275v-.916a.377.377,0,0,1,.66-.275.348.348,0,0,1,.11.275V17.7a.348.348,0,0,1-.092.238,18.33,18.33,0,0,0,3.281-.568,10.338,10.338,0,0,0,5.646-3.666,7.644,7.644,0,0,0,.752-1.338,1.375,1.375,0,0,0,.092-.293V11.05a.385.385,0,1,1,.77,0c0,.257,0,.513,0,.752h8.523V9.968a.385.385,0,1,1,.77,0V11.8h8.193V11.05a.4.4,0,0,1,.788,0v.88a.881.881,0,0,0,0,.22,1.961,1.961,0,0,0,.128.348c1.576,3.666,5.939,5.077,9.953,5.407a.44.44,0,0,1-.11-.2v-.861a.4.4,0,0,1,.385-.4.422.422,0,0,1,.275.128.348.348,0,0,1,.11.275V17.7a.348.348,0,0,1-.147.293h2.731a.385.385,0,0,1,.238,0,.367.367,0,0,1,.4.6,6.855,6.855,0,0,1-1.008.752,4.912,4.912,0,0,1-1.833.678H63.113l.165.275c.165.293.367.55.55.843h2.859a.385.385,0,1,1,0,.77h-2.4a15.122,15.122,0,0,0,1.833,2.126,7.039,7.039,0,0,0,4.821,2.328.348.348,0,0,1,.367.385.367.367,0,0,1-.367.385h-2.9v2.878h3.813a.385.385,0,0,1,0,.77H70.262v16.5h.147a4.821,4.821,0,0,0,3.226,1.485,31.344,31.344,0,1,0-52.02,0,6.14,6.14,0,0,0,1.595-.238Z" transform="translate(103.473 0.062)" fill="#fff"/>
    <path id="Tracé_14200" data-name="Tracé 14200" d="M36.73,27.05h2.951V25.62H36.73Z" transform="translate(120.507 21.455)" fill="#fff"/>
    <path id="Tracé_14201" data-name="Tracé 14201" d="M39.842,29.3H30.86v8.615a31.84,31.84,0,0,0,4.619.367,31.161,31.161,0,0,0,4.362-.367h0Z" transform="translate(115.618 24.52)" fill="#fff"/>
    <path id="Tracé_14202" data-name="Tracé 14202" d="M22.6,26.24h0v.092a5.5,5.5,0,0,1-3.061,1.411c.348.495.7.971,1.063,1.448H29.53a10.118,10.118,0,0,1-3.666-2.878H24.049A8.23,8.23,0,0,1,22.6,26.24Z" transform="translate(106.189 21.971)" fill="#fff"/>
    <path id="Tracé_14203" data-name="Tracé 14203" d="M27.083,29.24a.348.348,0,0,1-.183,0v6.819a29.492,29.492,0,0,0,6.58,1.833V29.277Z" transform="translate(112.319 24.47)" fill="#fff"/>
    <path id="Tracé_14204" data-name="Tracé 14204" d="M40.56,31.846l1.32-3.666H40.56Z" transform="translate(123.698 23.587)" fill="#fff"/>
    <path id="Tracé_14205" data-name="Tracé 14205" d="M51.538,19.885a6.892,6.892,0,0,1-3.666,1.008,6.727,6.727,0,0,1-2.969-.752H33.062a3.886,3.886,0,0,1-.568.257,6.983,6.983,0,0,1-2.126.44A6.6,6.6,0,0,1,26.5,19.83a5.3,5.3,0,0,0,3.006,2.145.33.33,0,0,1,.422,0h0c3.244.147,6.525,0,9.751,0h8.615a.385.385,0,0,1,.367,0,4.381,4.381,0,0,0,1.063-.4,7.057,7.057,0,0,0,1.815-1.686Z" transform="translate(111.986 16.632)" fill="#fff"/>
    <path id="Tracé_14206" data-name="Tracé 14206" d="M28.9,25.62H26.92v1.43H28.9Z" transform="translate(112.336 21.455)" fill="#fff"/>
    <path id="Tracé_14207" data-name="Tracé 14207" d="M27.982,27.265a1.833,1.833,0,0,0,.642-.293h0V26.33H23.73c.385.22.77.44,1.173.623a4.784,4.784,0,0,0,3.079.312Z" transform="translate(109.679 22.046)" fill="#fff"/>
    <path id="Tracé_14208" data-name="Tracé 14208" d="M40.483,25.62H38.76v1.43h1.723Z" transform="translate(122.198 21.455)" fill="#fff"/>
    <path id="Tracé_14209" data-name="Tracé 14209" d="M52.895,28.611h.4a7.332,7.332,0,0,0,3.519-1.338,5.059,5.059,0,0,1-3.153.367A2.419,2.419,0,0,1,52.528,27a1.174,1.174,0,0,0,0-.128H28.7v.147a1.943,1.943,0,0,1-.385.293,3.483,3.483,0,0,1-2.456.4,6.8,6.8,0,0,1-1.338-.33,8.01,8.01,0,0,0,4.271,1.3C36.819,28.666,44.866,28.611,52.895,28.611Z" transform="translate(110.337 22.496)" fill="#fff"/>
    <path id="Tracé_14210" data-name="Tracé 14210" d="M46.6,21.46H28.42v6.855h2.969v-.6a.385.385,0,1,1,.77,0v.6h10.7v-.6a.385.385,0,1,1,.77,0v.6h2.951Zm-2.878,4.656a.275.275,0,0,1,0,.165v.092H31.536a.385.385,0,0,1-.385-.385V22.963a.385.385,0,0,1,.385-.385H43.45a.4.4,0,0,1,.385.385Z" transform="translate(113.585 17.99)" fill="#fff"/>
    <path id="Tracé_14211" data-name="Tracé 14211" d="M30.27,22.49v2.438H41.414V22.49Z" transform="translate(115.126 18.848)" fill="#fff"/>
  </g>
</svg>
