<svg xmlns="http://www.w3.org/2000/svg" width="35.109" height="35.11" viewBox="0 0 35.109 35.11">
  <g id="noun_Flashlight_2414635" transform="translate(-1.987 -2.021)">
    <g id="Layer_4" data-name="Layer 4" transform="translate(1.987 2.021)">
      <path id="Tracé_14213" data-name="Tracé 14213" d="M31.956,15.4l-9.194-9.2a1.647,1.647,0,0,0-2.669.492l-2.009,4.5a1.652,1.652,0,0,0-.127.9L16.065,14a1.652,1.652,0,0,0-.039,2.29l-1.108,1.108-.184.184-.472-.473a1.685,1.685,0,0,0-2.33,0l-2.02,2.02a1.648,1.648,0,0,0,0,2.33l.473.473-6.72,6.723a1.646,1.646,0,0,0-.44,1.509l-.756.757a1.649,1.649,0,0,0,0,2.33l2.459,2.46a1.647,1.647,0,0,0,2.33,0l.76-.76a1.567,1.567,0,0,0,1.505-.438l12.36-12.365a1.7,1.7,0,0,0,2.287-.04l1.892-1.893a1.656,1.656,0,0,0,.9-.127l4.494-2.01a1.649,1.649,0,0,0,.495-2.67ZM10.8,20.012l2.02-2.02a.4.4,0,0,1,.555,0l.473.474-2.576,2.577-.472-.472a.4.4,0,0,1,0-.557ZM6.371,34.821a.4.4,0,0,1-.556,0L3.355,32.36a.726.726,0,0,1,0-.557l.59-.591L6.962,34.23Z" transform="translate(-1.987 -1.08)" fill="#fff"/>
      <path id="Tracé_14214" data-name="Tracé 14214" d="M20.383,8.317a.7.7,0,0,1-.094-.007.626.626,0,0,1-.527-.713l.756-5.043a.627.627,0,1,1,1.239.186L21,7.783A.626.626,0,0,1,20.383,8.317Z" transform="translate(2.525 -2.021)" fill="#fff"/>
      <path id="Tracé_14215" data-name="Tracé 14215" d="M25.593,12.659a.627.627,0,0,1-.093-1.247l5.039-.764a.627.627,0,0,1,.189,1.239l-5.039.764a.627.627,0,0,1-.1.007Z" transform="translate(3.849 0.168)" fill="#fff"/>
      <path id="Tracé_14216" data-name="Tracé 14216" d="M23.14,10.5A.628.628,0,0,1,22.7,9.428l3.767-3.76a.627.627,0,1,1,.887.888l-3.767,3.76a.627.627,0,0,1-.443.183Z" transform="translate(3.225 -1.141)" fill="#fff"/>
    </g>
  </g>
</svg>
