<svg xmlns="http://www.w3.org/2000/svg" width="39.461" height="27" viewBox="0 0 39.461 27">
  <g id="noun_binocular_716214" transform="translate(-5 -19.211)">
    <path id="Tracé_14212" data-name="Tracé 14212" d="M43.088,33.326,35.3,21.543h0a5.194,5.194,0,0,0-9.467,3.643v.008l.037.248H23.6l.037-.248v-.008a5.193,5.193,0,0,0-9.467-3.643h0L6.373,33.326h0a8.308,8.308,0,1,0,15.147,5.828h0l.368-2.44a3.992,3.992,0,0,0,5.681,0l.369,2.44h0a8.308,8.308,0,1,0,15.147-5.828ZM13.308,43.3a5.4,5.4,0,1,1,5.4-5.4A5.407,5.407,0,0,1,13.308,43.3Zm11.423-7.477A1.923,1.923,0,1,1,26.654,33.9,1.923,1.923,0,0,1,24.731,35.826ZM36.154,43.3a5.4,5.4,0,1,1,5.4-5.4A5.406,5.406,0,0,1,36.154,43.3Z" fill="#fff"/>
  </g>
</svg>
